<?xml version="1.0" standalone="no"?>
<!DOCTYPE svg PUBLIC "-//W3C//DTD SVG 20010904//EN"
 "http://www.w3.org/TR/2001/REC-SVG-20010904/DTD/svg10.dtd">
<svg version="1.0" xmlns="http://www.w3.org/2000/svg"
 width="512.000000pt" height="512.000000pt" viewBox="0 0 512.000000 512.000000"
 preserveAspectRatio="xMidYMid meet">
<metadata>
Created by potrace 1.14, written by Peter Selinger 2001-2017
</metadata>
<g transform="translate(0.000000,512.000000) scale(0.100000,-0.100000)"
fill="#000000" stroke="none">
<path d="M1748 5113 c-30 -5 -35 -21 -18 -54 19 -34 -4 -54 -102 -90 -97 -34
-162 -66 -213 -104 -78 -58 -162 -165 -205 -263 -19 -41 -35 -59 -74 -84 -400
-252 -732 -637 -929 -1078 -81 -183 -163 -464 -182 -625 -3 -27 -10 -84 -15
-125 -10 -77 -7 -485 4 -530 4 -14 9 -43 12 -65 6 -46 9 -62 23 -132 73 -367
250 -745 488 -1043 405 -507 1022 -843 1663 -907 98 -10 404 -10 500 0 74 7
299 45 311 52 3 2 19 7 36 9 30 6 153 41 183 53 8 3 20 7 25 9 78 20 334 140
455 213 555 335 954 873 1114 1501 34 136 39 159 52 260 7 57 18 85 41 108 7
8 26 30 41 50 15 21 29 39 32 42 4 3 33 39 66 80 51 65 59 81 59 118 0 56 -37
92 -93 92 -45 0 -52 -5 -90 -52 -29 -37 -30 -38 -34 -13 -4 18 11 50 59 122
60 91 65 101 60 142 -7 61 -40 92 -107 99 -28 2 -53 10 -55 16 -1 6 -13 56
-25 111 -64 284 -232 648 -403 875 -86 114 -134 169 -261 295 -274 273 -573
456 -955 584 -78 27 -289 79 -351 87 -25 3 -54 8 -65 10 -24 4 -138 16 -181
18 -17 1 -52 17 -80 37 -108 78 -215 127 -336 153 -40 9 -84 19 -98 22 -30 7
-313 12 -352 7z"/>
</g>
</svg>
